<svg id="Слой_1" xmlns="http://www.w3.org/2000/svg" viewBox="0 0 64 64"><style>.st0,.st1,.st2{fill:none;stroke:url(#SVGID_1_);stroke-width:3;stroke-linecap:round;stroke-linejoin:round;stroke-miterlimit:10}.st1,.st2{stroke:url(#SVGID_2_)}.st2{stroke:url(#SVGID_3_)}</style><title>Diploma</title><desc>A line styled icon from Orion Icon Library.</desc><linearGradient id="SVGID_1_" gradientUnits="userSpaceOnUse" x1="17.164" y1="65.686" x2="46.836" y2="36.014"><stop offset="0" stop-color="#a3acd9"/><stop offset="1" stop-color="#e1aca3"/></linearGradient><path class="st0" d="M17.6 37.7L10 56.4l8.8-1.1 5.5 6.8 6.4-18.6m15.7-5.8L54 56.4l-8.8-1.1-5.4 6.8-6.5-18.6"/><linearGradient id="SVGID_2_" gradientUnits="userSpaceOnUse" x1="22.454" y1="32.446" x2="41.546" y2="13.354"><stop offset="0" stop-color="#a3acd9"/><stop offset="1" stop-color="#e1aca3"/></linearGradient><circle class="st1" cx="32" cy="22.9" r="12"/><linearGradient id="SVGID_3_" gradientUnits="userSpaceOnUse" x1="15.764" y1="39.486" x2="48.236" y2="7.014"><stop offset="0" stop-color="#a3acd9"/><stop offset="1" stop-color="#e1aca3"/></linearGradient><path class="st2" d="M32 4.5l4.5-2.6 3.1 4.2 5.1-.5 1.1 5 4.9 1.7-1 5 3.8 3.5-3 4.2 2.1 4.8-4.5 2.6v5.1l-5.2.6-2.1 4.7-4.9-1.5-3.9 3.4-3.9-3.4-4.9 1.5-2.1-4.7-5.2-.6v-5.1l-4.5-2.6 2.1-4.8-3-4.2 3.8-3.5-1-5 4.9-1.7 1.1-5 5.1.5 3.1-4.2L32 4.5z"/></svg>