<svg id="Слой_1" xmlns="http://www.w3.org/2000/svg" viewBox="0 0 64 64"><style>.st0,.st1,.st2,.st3,.st4{fill:none;stroke:url(#SVGID_1_);stroke-width:3;stroke-linecap:round;stroke-linejoin:round;stroke-miterlimit:10}.st1,.st2,.st3,.st4{stroke:url(#SVGID_2_)}.st2,.st3,.st4{stroke:url(#SVGID_3_)}.st3,.st4{stroke:url(#SVGID_4_)}.st4{stroke:url(#SVGID_5_)}</style><title>Certificate</title><desc>A line styled icon from Orion Icon Library.</desc><linearGradient id="SVGID_1_" gradientUnits="userSpaceOnUse" x1="-.061" y1="52.061" x2="41.061" y2="10.939"><stop offset="0" stop-color="#a3acd9"/><stop offset="1" stop-color="#e1aca3"/></linearGradient><path class="st0" d="M40 56H6V2h24l16 16v6.3"/><linearGradient id="SVGID_2_" gradientUnits="userSpaceOnUse" x1="28.939" y1="19.061" x2="39.061" y2="8.939"><stop offset="0" stop-color="#a3acd9"/><stop offset="1" stop-color="#e1aca3"/></linearGradient><path class="st1" d="M30 2v16h16"/><linearGradient id="SVGID_3_" gradientUnits="userSpaceOnUse" x1="44.111" y1="39.889" x2="51.889" y2="32.111"><stop offset="0" stop-color="#a3acd9"/><stop offset="1" stop-color="#e1aca3"/></linearGradient><circle class="st2" cx="48" cy="36" r="4"/><linearGradient id="SVGID_4_" gradientUnits="userSpaceOnUse" x1="38.914" y1="61.336" x2="57.136" y2="43.114"><stop offset="0" stop-color="#a3acd9"/><stop offset="1" stop-color="#e1aca3"/></linearGradient><path class="st3" d="M40 44.2v16.1l8-5.3 8 5.3V44.1"/><linearGradient id="SVGID_5_" gradientUnits="userSpaceOnUse" x1="38.722" y1="45.368" x2="57.449" y2="26.641"><stop offset="0" stop-color="#a3acd9"/><stop offset="1" stop-color="#e1aca3"/></linearGradient><path class="st4" d="M58.9 38.4c0-.1 0-.3-.1-.4-.5-1.3-.5-2.7 0-4 .9-2.6-.5-5.3-3-6.2-.2-.1-.4-.1-.7-.2H55c-1.2 0-2.3-.6-3-1.5-1.6-2.2-4.6-2.7-6.8-1.1-.4.3-.8.6-1.1 1H44c-.7.9-1.8 1.5-2.9 1.6-2.7.5-4.5 3-4 5.7 0 .1.1.3.1.4 0 .1 0 .2.1.3.6 1.3.6 2.7 0 4-.9 2.6.5 5.3 3.1 6.2.3.1.6.2.9.2h.1c1.1.1 2.1.7 2.6 1.6 1.6 2.2 4.6 2.7 6.8 1.1.4-.3.8-.6 1.1-1h.1c.8-.9 1.9-1.5 3.1-1.7 2.7-.5 4.4-3 4-5.7-.1-.1-.1-.2-.2-.3z"/></svg>