<?xml version="1.0" encoding="utf-8"?>
<!-- Generator: Adobe Illustrator 22.0.1, SVG Export Plug-In . SVG Version: 6.00 Build 0)  -->
<svg version="1.1" xmlns="http://www.w3.org/2000/svg" xmlns:xlink="http://www.w3.org/1999/xlink" x="0px" y="0px"
	 viewBox="0 0 632.5 410.3" style="enable-background:new 0 0 632.5 410.3;" xml:space="preserve">
<style type="text/css">
	.st0{display:none;}
	.st1{display:inline;}
	.st2{fill:#C3C3C3;}
	.st3{display:inline;fill:none;stroke:#C3C3C3;stroke-miterlimit:10;}
	.st4{display:inline;fill:#C3C3C3;}
	.st5{fill:#434FA4;}
	.st6{opacity:0.5;fill:url(#SVGID_1_);}
	.st7{fill:url(#SVGID_2_);}
	.st8{opacity:0.5;fill:url(#SVGID_3_);}
	.st9{fill:url(#SVGID_4_);}
	.st10{opacity:0.5;fill:url(#SVGID_5_);}
	.st11{fill:url(#SVGID_6_);}
	.st12{opacity:0.5;fill:url(#SVGID_7_);}
	.st13{fill:url(#SVGID_8_);}
	.st14{opacity:0.5;fill:url(#SVGID_9_);}
	.st15{fill:url(#SVGID_10_);}
	.st16{opacity:0.5;fill:url(#SVGID_11_);}
	.st17{fill:url(#SVGID_12_);}
	.st18{opacity:0.5;fill:url(#SVGID_13_);}
	.st19{fill:url(#SVGID_14_);}
	.st20{opacity:0.5;fill:url(#SVGID_15_);}
	.st21{fill:url(#SVGID_16_);}
	.st22{fill:#2F234C;}
</style>
<g id="Layer_5" class="st0">
</g>
<g id="Layer_6" class="st0">
</g>
<g id="Layer_7" class="st0">
</g>
<g id="Layer_9" class="st0">
	<g class="st1">
		<path class="st2" d="M216-66.1c157.2,0,284.7,127.5,284.7,284.7c0,157.2-127.5,284.7-284.7,284.7S-68.7,375.9-68.7,218.6
			C-68.7,61.4,58.7-66.1,216-66.1 M216-67.1c-38.6,0-76,7.6-111.2,22.5c-34,14.4-64.6,35-90.8,61.2c-26.2,26.2-46.8,56.8-61.2,90.8
			c-14.9,35.2-22.5,72.6-22.5,111.2s7.6,76,22.5,111.2c14.4,34,35,64.6,61.2,90.8c26.2,26.2,56.8,46.8,90.8,61.2
			c35.2,14.9,72.6,22.5,111.2,22.5c38.6,0,76-7.6,111.2-22.5c34-14.4,64.6-35,90.8-61.2c26.2-26.2,46.8-56.8,61.2-90.8
			c14.9-35.2,22.5-72.6,22.5-111.2s-7.6-76-22.5-111.2c-14.4-34-35-64.6-61.2-90.8c-26.2-26.2-56.8-46.8-90.8-61.2
			C292-59.5,254.5-67.1,216-67.1L216-67.1z"/>
	</g>
</g>
<g id="Layer_10" class="st0">
	<path class="st3" d="M143.2,161.3c-13.5,5.7-28.4,8.8-44,8.8c-62.8,0-113.8-50.9-113.8-113.8S36.4-57.4,99.2-57.4S213-6.5,213,56.4
		c0,28.9-10.8,55.3-28.6,75.4"/>
	<path class="st3" d="M273.9,289.9c-36,39.3-87.7,63.9-145.1,63.9C20.1,353.7-68,265.6-68,156.9S20.1-39.9,128.8-39.9
		s196.8,88.1,196.8,196.8c0,45.7-15.6,87.8-41.7,121.2"/>
	<g class="st1">
		<path class="st2" d="M173.9-52.3C278-52.3,362.4,32,362.4,136.1c0,104.1-84.4,188.5-188.5,188.5c-104.1,0-188.5-84.4-188.5-188.5
			C-14.6,32,69.8-52.3,173.9-52.3 M173.9-53.3c-25.6,0-50.4,5-73.7,14.9C77.6-28.9,57.3-15.3,39.9,2.1C22.5,19.5,8.9,39.8-0.7,62.4
			c-9.9,23.4-14.9,48.2-14.9,73.7c0,25.6,5,50.4,14.9,73.7c9.5,22.6,23.2,42.8,40.6,60.2c17.4,17.4,37.7,31.1,60.2,40.6
			c23.4,9.9,48.2,14.9,73.7,14.9c25.6,0,50.4-5,73.7-14.9c22.6-9.5,42.8-23.2,60.2-40.6c17.4-17.4,31.1-37.7,40.6-60.2
			c9.9-23.4,14.9-48.2,14.9-73.7c0-25.6-5-50.4-14.9-73.7c-9.5-22.6-23.2-42.8-40.6-60.2c-17.4-17.4-37.7-31.1-60.2-40.6
			C224.3-48.3,199.5-53.3,173.9-53.3L173.9-53.3z"/>
	</g>
	<g class="st1">
		<path class="st2" d="M216-61.6c103.6,0,187.6,84,187.6,187.6s-84,187.6-187.6,187.6S28.4,229.6,28.4,126S112.4-61.6,216-61.6
			 M216-62.6c-25.5,0-50.2,5-73.4,14.8C120.2-38.3,100-24.7,82.7-7.4C65.4,10,51.8,30.1,42.3,52.6c-9.8,23.3-14.8,47.9-14.8,73.4
			s5,50.2,14.8,73.4c9.5,22.5,23.1,42.6,40.4,59.9c17.3,17.3,37.5,30.9,59.9,40.4c23.3,9.8,47.9,14.8,73.4,14.8s50.2-5,73.4-14.8
			c22.5-9.5,42.6-23.1,59.9-40.4c17.3-17.3,30.9-37.5,40.4-59.9c9.8-23.3,14.8-47.9,14.8-73.4s-5-50.2-14.8-73.4
			c-9.5-22.5-23.1-42.6-40.4-59.9c-17.3-17.3-37.5-30.9-59.9-40.4C266.2-57.6,241.5-62.6,216-62.6L216-62.6z"/>
	</g>
	<g class="st1">
		<path class="st2" d="M264.2-51.6C368.5-51.6,453,32.9,453,137.2C453,241.5,368.5,326,264.2,326C160,326,75.4,241.5,75.4,137.2
			C75.4,32.9,160-51.6,264.2-51.6 M264.2-52.6c-25.6,0-50.5,5-73.9,14.9C167.8-28.1,147.5-14.4,130,3
			c-17.4,17.4-31.1,37.7-40.7,60.3c-9.9,23.4-14.9,48.3-14.9,73.9s5,50.5,14.9,73.9c9.6,22.6,23.2,42.9,40.7,60.3
			c17.4,17.4,37.7,31.1,60.3,40.7c23.4,9.9,48.3,14.9,73.9,14.9s50.5-5,73.9-14.9c22.6-9.6,42.9-23.2,60.3-40.7
			c17.4-17.4,31.1-37.7,40.7-60.3c9.9-23.4,14.9-48.3,14.9-73.9s-5-50.5-14.9-73.9c-9.6-22.6-23.2-42.9-40.7-60.3
			c-17.4-17.4-37.7-31.1-60.3-40.7C314.7-47.6,289.9-52.6,264.2-52.6L264.2-52.6z"/>
	</g>
	<path class="st3" d="M129.4,185.9c14.8-112,110.7-198.5,226.8-198.5C482.6-12.6,585,89.8,585,216.2S482.6,445,356.2,445
		c-113.7,0-208.1-83-225.8-191.7"/>
	<g id="Layer_28" class="st1">
		<g>
			<path class="st2" d="M132.1,284.7c7.6,0,14.9,0.7,22.1,2.2c13.4,12.2,30.5,20.5,49.4,23.1c25.8,20.9,42.3,52.7,42.3,88.5
				c0,62.8-50.9,113.8-113.8,113.8c-62.8,0-113.8-50.9-113.8-113.8C18.3,335.6,69.3,284.7,132.1,284.7 M132.1,283.7
				c-30.7,0-59.5,11.9-81.1,33.6c-21.7,21.7-33.6,50.5-33.6,81.1c0,30.7,11.9,59.5,33.6,81.1c21.7,21.7,50.5,33.6,81.1,33.6
				s59.5-11.9,81.1-33.6c21.7-21.7,33.6-50.5,33.6-81.1c0-34.8-15.5-67.3-42.7-89.3L204,309l-0.3,0c-18.3-2.5-35.2-10.4-48.8-22.9
				l-0.2-0.2l-0.3-0.1C147.1,284.4,139.6,283.7,132.1,283.7L132.1,283.7z"/>
		</g>
	</g>
</g>
<g id="Layer_8" class="st0">
	<g class="st1">
		<path class="st2" d="M27.2,123.3c52.7,0,95.5,42.8,95.5,95.5c0,52.7-42.8,95.5-95.5,95.5c-52.7,0-95.5-42.8-95.5-95.5
			C-68.3,166.1-25.5,123.3,27.2,123.3 M27.2,122.3c-53.2,0-96.5,43.3-96.5,96.5c0,53.2,43.3,96.5,96.5,96.5
			c53.2,0,96.5-43.3,96.5-96.5C123.7,165.6,80.4,122.3,27.2,122.3L27.2,122.3z"/>
	</g>
	<g class="st1">
		<path class="st2" d="M54.9,220.9c52.7,0,95.5,42.8,95.5,95.5c0,52.7-42.8,95.5-95.5,95.5c-52.7,0-95.5-42.8-95.5-95.5
			C-40.6,263.6,2.1,220.9,54.9,220.9 M54.9,219.9c-53.2,0-96.5,43.3-96.5,96.5c0,53.2,43.3,96.5,96.5,96.5
			c53.2,0,96.5-43.3,96.5-96.5C151.4,263.2,108.1,219.9,54.9,219.9L54.9,219.9z"/>
	</g>
	<g class="st1">
		<path class="st2" d="M223.6,311.1c52.7,0,95.5,42.8,95.5,95.5c0,52.7-42.8,95.5-95.5,95.5c-52.7,0-95.5-42.8-95.5-95.5
			C128.1,353.8,170.8,311.1,223.6,311.1 M223.6,310.1c-53.2,0-96.5,43.3-96.5,96.5c0,53.2,43.3,96.5,96.5,96.5s96.5-43.3,96.5-96.5
			C320.1,353.4,276.8,310.1,223.6,310.1L223.6,310.1z"/>
	</g>
	<g class="st1">
		<path class="st2" d="M52.6,28.5c52.7,0,95.5,42.8,95.5,95.5s-42.8,95.5-95.5,95.5c-52.7,0-95.5-42.8-95.5-95.5
			S-0.1,28.5,52.6,28.5 M52.6,27.5c-53.2,0-96.5,43.3-96.5,96.5s43.3,96.5,96.5,96.5s96.5-43.3,96.5-96.5S105.8,27.5,52.6,27.5
			L52.6,27.5z"/>
	</g>
	<g class="st1">
		<path class="st2" d="M219-66.3c52.7,0,95.5,42.8,95.5,95.5c0,52.7-42.8,95.5-95.5,95.5c-52.7,0-95.5-42.8-95.5-95.5
			C123.5-23.6,166.3-66.3,219-66.3 M219-67.3c-53.2,0-96.5,43.3-96.5,96.5s43.3,96.5,96.5,96.5s96.5-43.3,96.5-96.5
			S272.2-67.3,219-67.3L219-67.3z"/>
	</g>
	<g class="st1">
		<path class="st2" d="M312.9-39.1c52.7,0,95.5,42.8,95.5,95.5c0,52.7-42.8,95.5-95.5,95.5c-52.7,0-95.5-42.8-95.5-95.5
			C217.4,3.6,260.1-39.1,312.9-39.1 M312.9-40.1c-53.2,0-96.5,43.3-96.5,96.5c0,53.2,43.3,96.5,96.5,96.5s96.5-43.3,96.5-96.5
			C409.4,3.1,366.1-40.1,312.9-40.1L312.9-40.1z"/>
	</g>
</g>
<g id="point" class="st0">
	<path class="st4" d="M21.9,404.5c0,2-1.6,3.5-3.5,3.5s-3.5-1.6-3.5-3.5s1.6-3.5,3.5-3.5S21.9,402.5,21.9,404.5z"/>
	<path class="st4" d="M11.9,312.8c0,2-1.6,3.5-3.5,3.5s-3.5-1.6-3.5-3.5s1.6-3.5,3.5-3.5S11.9,310.9,11.9,312.8z"/>
	<path class="st4" d="M0.3,201.9c0,2-1.6,3.5-3.5,3.5s-3.5-1.6-3.5-3.5s1.6-3.5,3.5-3.5S0.3,200,0.3,201.9z"/>
	<path class="st4" d="M59,27.8c0,2-1.6,3.5-3.5,3.5c-2,0-3.5-1.6-3.5-3.5s1.6-3.5,3.5-3.5C57.4,24.2,59,25.8,59,27.8z"/>
	<path class="st4" d="M128.7,8.5c0,2-1.6,3.5-3.5,3.5c-2,0-3.5-1.6-3.5-3.5s1.6-3.5,3.5-3.5C127.1,5,128.7,6.6,128.7,8.5z"/>
	<path class="st4" d="M262,9.2c0,2-1.6,3.5-3.5,3.5s-3.5-1.6-3.5-3.5s1.6-3.5,3.5-3.5S262,7.2,262,9.2z"/>
</g>
<g id="centr_1_" class="st0">
	<path class="st3" d="M196.2,126.8c6.2-1.3,12.5-2,19.1-2c51.2,0,92.6,41.5,92.6,92.6c0,20.5-6.7,39.5-17.9,54.8"/>
</g>
<g id="Layer_27">
	<linearGradient id="SVGID_1_" gradientUnits="userSpaceOnUse" x1="127.5958" y1="322.0214" x2="303.1666" y2="322.0214">
		<stop  offset="0" style="stop-color:#E1777A"/>
		<stop  offset="1" style="stop-color:#6A6DBB"/>
	</linearGradient>
	<path class="st6" d="M301.3,251.2c-2.4,6.4-5.3,11.9-8.3,16.7l0.1,0.2c-6.6,10.3-15.2,19.1-25.3,26c-2.7,2-6,4-9.7,5.8
		c-6.8,3.5-14.1,6.2-21.7,8c-1.1,0.3-2.1,0.5-3.1,0.7c-1.9,0.4-3.8,0.7-5.8,0.8c-3.3,0.4-6.7,0.7-10.1,0.7c-2.5,0.2-5,0.5-7.7,0.9
		c-9,1.6-20.2,4.9-26.8,8.3c-12.9,6.6-20,11.2-27.6,19.1c-9.4,9.8-17.1,20.9-21.1,31.1c-5.4,14-6.3,23-6.3,23l-0.5,4
		c0.4,0,0.8-0.4,0.8-0.4c0.9-3.2,7-9.4,11-12.8c7.9-6.8,20.3-14.3,29.9-18.6c14.1-6.4,24.1-10.4,38.2-16.9
		c32.2-14.9,42.4-23.3,54.6-32.7c3.2-2.4,11.9-11.7,16.4-16.3c4.7-4.7,8.2-11.3,11.6-16.3c4.8-7,4.6-10.2,7.9-19.3
		c3.4-9.2,5.3-16.1,5.3-16.1S301.8,250,301.3,251.2z"/>
	<g>
		
			<linearGradient id="SVGID_2_" gradientUnits="userSpaceOnUse" x1="176.8194" y1="-1865.2501" x2="403.4619" y2="-1865.2501" gradientTransform="matrix(-0.872 0.4895 -0.4895 -0.872 -438.8571 -1436.7435)">
			<stop  offset="0" style="stop-color:#6A6DBB"/>
			<stop  offset="0.1447" style="stop-color:#6E6EBA"/>
			<stop  offset="0.2947" style="stop-color:#796FB8"/>
			<stop  offset="0.4472" style="stop-color:#876FB0"/>
			<stop  offset="0.6014" style="stop-color:#9770A0"/>
			<stop  offset="0.7568" style="stop-color:#A56D8A"/>
			<stop  offset="0.9113" style="stop-color:#CC7482"/>
			<stop  offset="1" style="stop-color:#E1777A"/>
		</linearGradient>
		<path class="st7" d="M303.9,259.2c-2,6.4-3.5,13.5-6.5,21.3c-6.6,17-17.8,36.8-38.4,57.6c-10.9,11-21.3,21.2-33,28.5
			c-28.3,17.6-59.5,27.3-98.4,30.2c0,0-0.6-2.2,6.6-9.6c3-3,14-12.6,26.4-18.9c13.2-6.7,27.3-12.5,42-19.1
			c16.2-7.3,28.9-14.2,38.5-19.7c6.8-3.9,16.9-11.7,22.9-17.3c18.6-16.9,20.3-21.8,27.8-33c3.4-5,4.6-13.7,8.9-26.9
			C303.8,243.2,306.8,250,303.9,259.2z"/>
	</g>
	<linearGradient id="SVGID_3_" gradientUnits="userSpaceOnUse" x1="37.5142" y1="308.3068" x2="269.3909" y2="308.3068">
		<stop  offset="0" style="stop-color:#E1777A"/>
		<stop  offset="1" style="stop-color:#6A6DBB"/>
	</linearGradient>
	<path class="st8" d="M241.5,306.6c-12.1,3.6-23.9,4.5-30.8,3.5c-22.5-1.2-42.8-10.6-58.1-25.1c-8.5-2-19.3-1.8-26.3-1.7
		c-14.5,0.3-26,4.1-36.3,7.7c-12.9,4.4-26,13.7-34.2,20.9c-11,9.6-16,17.4-16,17.4l-2.4,3.3c0.3,0.2,1.2,0.5,1.2,0.5
		c1.9-1,10.5-4.1,15.6-5.2c10.2-2.1,24.3-2.4,34.8-1.6c15.4,1.2,25.9,2.4,41.3,4.3c39.9,4.8,52,2.2,67.1-0.1
		c3.9-0.6,16.9-5.3,23.1-7c6.4-1.8,13.9-6.3,19.3-9c7.6-3.8,9-6,17.5-12.4c7.8-5.8,12-9.1,12-9.1s0,0,0,0
		C261,299.1,251.6,303.7,241.5,306.6z"/>
	<linearGradient id="SVGID_4_" gradientUnits="userSpaceOnUse" x1="254.9772" y1="259.6149" x2="60.2816" y2="372.0224">
		<stop  offset="0" style="stop-color:#6A6DBB"/>
		<stop  offset="0.1447" style="stop-color:#6E6EBA"/>
		<stop  offset="0.2947" style="stop-color:#796FB8"/>
		<stop  offset="0.4472" style="stop-color:#876FB0"/>
		<stop  offset="0.6014" style="stop-color:#9770A0"/>
		<stop  offset="0.7568" style="stop-color:#A56D8A"/>
		<stop  offset="0.9113" style="stop-color:#CC7482"/>
		<stop  offset="1" style="stop-color:#E1777A"/>
	</linearGradient>
	<path class="st9" d="M259.6,299.2c-7.9,5.8-15.7,10.6-19.2,12.4c-12,6.2-17,9.7-41.4,15.5c-8,1.9-21.3,3-29.1,3.1
		c-11.1,0.2-25.9-1.3-43.6-2.8c-16.1-1.3-31.2-3.1-46-3.6c-13.9-0.5-28.2,2.5-32.3,3.8c-9.9,3-10.5,5.2-10.5,5.2
		c52.3,24.7,101.1,27.5,144.5,14.8c40.9-11.9,65.3-30.7,80.9-45.5c3.6-3.4,7.7-8.4,9.9-11.5C268.7,293.7,264.3,296.7,259.6,299.2z"
		/>
	<linearGradient id="SVGID_5_" gradientUnits="userSpaceOnUse" x1="9.9117" y1="267.8563" x2="237.3512" y2="267.8563">
		<stop  offset="0" style="stop-color:#E1777A"/>
		<stop  offset="1" style="stop-color:#6A6DBB"/>
	</linearGradient>
	<path class="st10" d="M237.2,308c-5.2,1.5-11.4,2.2-18,2.1c-1.1,0-2.2,0.1-3.3,0.1c-10.2,0-19.9-1.7-29.1-4.7
		c-7.3-2.1-13.4-4.7-16.9-7.5c-0.3-0.2-0.6-0.4-0.9-0.7c-9.5-5.7-17.9-13-24.8-21.6c-1.4-1.5-2.5-3-3.4-4.4
		c-0.2-0.4-0.5-0.8-0.7-1.1c-1-1.4-1.9-2.9-2.8-4.4c-3.2-4.9-6.2-8.7-10.4-13.2c-6.3-6.7-12.9-13-19.8-17
		c-11.6-6.8-21.9-11.5-32.7-13.4c-13.4-2.4-27.8-2.4-38.5-0.1c-14.3,3-22.5,7.6-22.5,7.6l-3.4,1.8c0.2,0.3,0.6,1.3,0.6,1.3
		c2.2,0.1,11.1,1.5,16.2,3.1c9.9,3.1,21.9,10.1,30.7,16c12.9,8.6,21.4,14.9,33.9,24c32.4,23.7,44.6,26.9,59,32.4
		c3.7,1.4,17.4,3.7,23.6,5.2c6.5,1.5,15.2,1.4,21.2,1.6c8.5,0.4,10.8-0.8,21.3-2.2c9.7-1.3,16-3.3,16-3.3S238.5,307.7,237.2,308z"/>
	<g>
		
			<linearGradient id="SVGID_6_" gradientUnits="userSpaceOnUse" x1="-645.7891" y1="-1769.9924" x2="-436.1437" y2="-1886.4171" gradientTransform="matrix(-0.8742 -0.4855 0.4855 -0.8742 544.7348 -1581.8523)">
			<stop  offset="0" style="stop-color:#6A6DBB"/>
			<stop  offset="0.1447" style="stop-color:#6E6EBA"/>
			<stop  offset="0.2947" style="stop-color:#796FB8"/>
			<stop  offset="0.4472" style="stop-color:#876FB0"/>
			<stop  offset="0.6014" style="stop-color:#9770A0"/>
			<stop  offset="0.7568" style="stop-color:#A56D8A"/>
			<stop  offset="0.9113" style="stop-color:#CC7482"/>
			<stop  offset="1" style="stop-color:#E1777A"/>
		</linearGradient>
		<path class="st11" d="M249.9,303.7c0.5,2.6-20.5,9.7-29.4,13.1c-17.9,6.8-49.9,13.7-91.4,4c-44-10.2-89.8-39.1-119-88.5
			c0,0,1.2-0.6,11.3,1.6c4.1,0.9,17.4,5.9,29.3,13.1c12.7,7.7,24.7,17.5,38.1,26.6c14.8,10,25.8,17.7,35.6,23
			c6.9,3.7,20.1,9.6,28,11.9c24.1,7,31.7,6,45.2,6.5c6,0.2,24.2-3,37.7-6.3c6.2-1.5,10.1-3.2,12.4-4.2
			C248.7,304.1,249.9,303.7,249.9,303.7z"/>
	</g>
	<linearGradient id="SVGID_7_" gradientUnits="userSpaceOnUse" x1="27.1856" y1="217.7664" x2="215.3293" y2="217.7664">
		<stop  offset="0" style="stop-color:#E1777A"/>
		<stop  offset="1" style="stop-color:#6A6DBB"/>
	</linearGradient>
	<path class="st12" d="M213.2,310.2c-32.4-0.9-60.6-18.7-76.2-44.8c-1.9-1.8-3.3-3.5-3.8-4.9c-3.3-8.6-10-25.5-9.4-38.2
		c0.4-9.1-0.4-15.8-2.2-23.8c-2-9-5.6-18.3-9.5-25.3c-6.5-11.8-14.3-20.5-22.6-27.7c-10.2-8.9-23.9-15.3-34.4-18.5
		c-13.7-4.2-23.9-4.1-23.9-4.1l-4-0.1c0,0.4,0.1,1,0.1,1c1.8,1.2,8.8,7,12.3,11c6.9,7.8,14.7,19.3,19.5,28.7
		c6.5,12.6,10.4,23.7,16.6,37.7c15.4,35.3,23.2,47.2,32.7,59.2c2.5,3.1,11.9,13.8,16.5,18.2c4.8,4.6,11.1,9.9,16.1,13.4
		c6.7,4.6,18.3,10.1,28,14.6c8.8,4.1,18.1,5.4,18.1,5.4s6.5,1,13.2,0.9c7.3,0,16.1-1.1,15-2.5C215.2,310.2,214,310.2,213.2,310.2z"
		/>
	<g>
		
			<linearGradient id="SVGID_8_" gradientUnits="userSpaceOnUse" x1="-985.3638" y1="-1473.129" x2="-736.5383" y2="-1473.129" gradientTransform="matrix(-0.501 -0.8655 0.8655 -0.501 944.0143 -1258.0822)">
			<stop  offset="0" style="stop-color:#6A6DBB"/>
			<stop  offset="0.1447" style="stop-color:#6E6EBA"/>
			<stop  offset="0.2947" style="stop-color:#796FB8"/>
			<stop  offset="0.4472" style="stop-color:#876FB0"/>
			<stop  offset="0.6014" style="stop-color:#9770A0"/>
			<stop  offset="0.7568" style="stop-color:#A56D8A"/>
			<stop  offset="0.9113" style="stop-color:#CC7482"/>
			<stop  offset="1" style="stop-color:#E1777A"/>
		</linearGradient>
		<path class="st13" d="M196.7,313.1c-2.6,0-15.8-1.8-25.2-3.5c-18.8-3.3-57.4-19.3-88-48.8c-32.5-31.4-56.5-79.7-56.2-137.1
			c0,0,1.8,1,9.2,7.5c3.2,2.8,12,14,19.5,25.8c7.8,12.2,12.2,27.2,19.1,41.8c7.6,16.1,12,27.4,17.7,36.9c4,6.7,11.5,19.6,16.8,25.9
			c16,19,24.7,25.9,36,33.3c5.1,3.3,20.5,11.2,33.8,15.4C188.1,313.1,197.5,313.1,196.7,313.1z"/>
	</g>
	<linearGradient id="SVGID_9_" gradientUnits="userSpaceOnUse" x1="100.3233" y1="148.2554" x2="148.9471" y2="148.2554">
		<stop  offset="0" style="stop-color:#E1777A"/>
		<stop  offset="1" style="stop-color:#6A6DBB"/>
	</linearGradient>
	<path class="st14" d="M104.5,52.9c0.3,1,0.8,2.7,1.2,4.9c0,0,0,0,0,0c0,0,0,0,0,0c0.4,2,0.9,4.4,1.3,7.1c1.4,8.2,2.5,17.3,2.3,25.1
		c0.3,13.2-0.3,28-1.5,42.3c-1.5,17.7-1.1,26.9-1,38c0.1,7.8,0.9,16.6,2.3,24.7c4.3,24.4,7.2,35.2,13.3,47.3
		c1.3,2.6,4.5,7.5,8.6,13.3c-1.1-3.3-2.3-7.1-3.4-11.2c-0.4-1.4-0.8-2.7-1.1-4.1c-2.5-9.8-4.4-20.3-3.3-27.1
		c1.5-9.1,4.1-27.1,11-37.8c4.9-7.6,7.5-13.9,10-21.7c2.8-8.8,4.3-18.6,4.5-26.6c0.3-13.5-2.1-24.9-5.6-35.3
		c-4.4-12.9-13-25.3-20.5-33.3C113,48.1,104.2,43,104.2,43l-3.4-2.1c-0.1,0.3-0.4,0.8-0.4,0.9C100.5,42.1,101.6,44.2,104.5,52.9z"/>
	<linearGradient id="SVGID_10_" gradientUnits="userSpaceOnUse" x1="119.1271" y1="294.3172" x2="119.1271" y2="41.7808">
		<stop  offset="0" style="stop-color:#6A6DBB"/>
		<stop  offset="0.1447" style="stop-color:#6E6EBA"/>
		<stop  offset="0.2947" style="stop-color:#796FB8"/>
		<stop  offset="0.4472" style="stop-color:#876FB0"/>
		<stop  offset="0.6014" style="stop-color:#9770A0"/>
		<stop  offset="0.7568" style="stop-color:#A56D8A"/>
		<stop  offset="0.9113" style="stop-color:#CC7482"/>
		<stop  offset="1" style="stop-color:#E1777A"/>
	</linearGradient>
	<path class="st15" d="M164.1,294.2c-1.3-1.1-3-2.2-5.6-4.1c-10.6-8.5-19.3-19.4-25.3-31.8c-5-7-9-13-10.6-16
		c-6.1-12-9-22.8-13.3-47.3c-1.4-8.1-2.2-16.8-2.3-24.7c-0.1-11.1-0.6-20.2,1-38c1.4-16.1,2-32.9,1.3-47.3
		c-0.6-13.9-3.4-28.1-4.7-32.1c-3.1-9.4-4.2-11.1-4.2-11.1C71.2,91.2,68.8,144.9,81.2,188.3c11.7,41,36.1,73.2,50.8,84.2
		c7.8,5.8,19.3,14.8,21.5,16.2C157,290.9,165,295,164.1,294.2z"/>
	<linearGradient id="SVGID_11_" gradientUnits="userSpaceOnUse" x1="125.0808" y1="108.8191" x2="213.8274" y2="108.8191">
		<stop  offset="0" style="stop-color:#6A6DBB"/>
		<stop  offset="1" style="stop-color:#E1777A"/>
	</linearGradient>
	<path class="st16" d="M204.1,21.6c-0.1,0.6-0.3,1.5-0.6,2.5c-0.2,0.8-0.4,1.6-0.7,2.4c0,0,0,0,0,0c-1.2,4.2-3.3,10-5.8,16.2
		c-2.2,5.5-4.6,10.9-7.4,15.4c0,0-0.1,0.1-0.1,0.1c-3.1,5.5-6.7,11.1-10.5,16.7c-4,6-8.2,12-13.2,18.5
		c-9.9,13.6-14.5,20.1-19.6,29.6c-2.8,5.3-6.2,13-8.9,19.9c-1,2.7-1.9,5.4-2.9,8.1c0,0,0,0,0,0c-0.6,1.8-1.2,3.6-1.7,5.3
		c-1.6,5.2-3.5,12.5-4.5,16.8c-0.9,3.8-1.6,7.7-2.1,11.5c-0.6,4.7-0.9,9.1-1.1,13.6c0,0.7,0,1.5,0,2.2c0,1.6,0,3.2,0,4.7
		c5.1-33.9,28.8-61.8,60.4-72.8c1.2-1.4,2.4-2.9,3.7-4.3c5.4-6.4,10-13.7,13.3-21c5.3-12.1,9.1-22.9,10.4-33.8
		c1.4-11.7,1.5-25.9-0.7-36.6c-3-14.9-6.1-22-6.1-22l-1.2-2c-0.1,0.1-0.3,0.2-0.4,0.3C204.8,13.4,205.2,15.4,204.1,21.6z"/>
	<linearGradient id="SVGID_12_" gradientUnits="userSpaceOnUse" x1="88.4022" y1="191.6668" x2="235.8287" y2="44.2403">
		<stop  offset="0" style="stop-color:#6A6DBB"/>
		<stop  offset="0.1447" style="stop-color:#6E6EBA"/>
		<stop  offset="0.2947" style="stop-color:#796FB8"/>
		<stop  offset="0.4472" style="stop-color:#876FB0"/>
		<stop  offset="0.6014" style="stop-color:#9770A0"/>
		<stop  offset="0.7568" style="stop-color:#A56D8A"/>
		<stop  offset="0.9113" style="stop-color:#CC7482"/>
		<stop  offset="1" style="stop-color:#E1777A"/>
	</linearGradient>
	<path class="st17" d="M124.1,218.4c0-4.6,0.4-9.1,1-13.5c0-2.4,0-4.8,0.1-6.8c0.4-13.5,2.2-25.9,10.2-49.4
		c2.6-7.8,7.3-18.8,11-25.8c5.2-9.8,9.9-16.4,20.4-30.8c9.2-12.6,19.8-27.3,26.1-40.3c6.1-12.5,10.5-26.3,11.3-30.5
		c1.8-9.7-0.2-9-0.2-9c-102.7,66.6-93.6,162.7-82.3,203.6c1.1,3.9,1.5,7.8,2.3,11.1C123.6,224.3,124.1,221.4,124.1,218.4z"/>
	<linearGradient id="SVGID_13_" gradientUnits="userSpaceOnUse" x1="139.5633" y1="98.9621" x2="315.3541" y2="98.9621">
		<stop  offset="0" style="stop-color:#6A6DBB"/>
		<stop  offset="1" style="stop-color:#E1777A"/>
	</linearGradient>
	<path class="st18" d="M314.4,32C314.4,32,314.4,32,314.4,32c0.1,0,0.2,0,0.3,0c0,0,1.3,0.5-3.5,7.6c-0.5,0.8-1.3,1.8-2.4,3.1
		c-0.4,0.5-0.9,1.1-1.3,1.6c0,0,0,0,0,0c-3.8,4.3-10.4,10.6-20.9,18.5c-11.6,8.7-27.2,16.8-41.9,22c-0.7,0.2-1.3,0.5-2,0.7
		c-3.8,1.4-7.5,2.9-11.2,4.4c-9.4,3.9-17.3,7.8-24.4,10.9c-6.2,2.7-13.2,6.8-20.1,11.2c-18.3,11.8-27.9,22.6-35.6,33.7
		c-4,5.7-8.5,13.9-11.8,20.2c0.4-0.5,2-2.1,4.4-4.5c6.6-8.4,14.7-15.6,23.8-21.2c4.8-3.6,9.6-6.6,13.6-8c8.7-3,25.6-7.6,38.2-6.5
		c9.1,0.7,18.4-1.1,26.3-3.5c8.1-2.4,15.1-5.3,21.7-9.7c11-7.3,20-15.1,27-23.5c7.5-9.1,12.6-19.4,15.6-28.4c5-14.5,5-25.9,5-25.9
		l0.1-2.8C315,32,314.4,32,314.4,32z"/>
	<linearGradient id="SVGID_14_" gradientUnits="userSpaceOnUse" x1="314.8678" y1="103.6962" x2="134.7879" y2="103.6962">
		<stop  offset="0" style="stop-color:#E1777A"/>
		<stop  offset="8.867747e-02" style="stop-color:#CC7482"/>
		<stop  offset="0.2432" style="stop-color:#A56D8A"/>
		<stop  offset="0.3986" style="stop-color:#9770A0"/>
		<stop  offset="0.5528" style="stop-color:#876FB0"/>
		<stop  offset="0.7053" style="stop-color:#796FB8"/>
		<stop  offset="0.8553" style="stop-color:#6E6EBA"/>
		<stop  offset="1" style="stop-color:#6A6DBB"/>
	</linearGradient>
	<path class="st19" d="M314.7,32c-119.8,3.4-163.4,86.4-176.1,126.9c-2.9,9.1-3.8,16.5-3.8,16.5s9.1-19,16.5-29.6
		c7.7-11.1,17.3-22,35.6-33.7c6.9-4.4,13.9-8.5,20.1-11.2c10.2-4.5,22.1-10.6,37.6-16c14.7-5.2,30.3-13.3,41.9-22
		c15.4-11.5,22.3-19.6,24.7-23.1C316,32.5,314.7,32,314.7,32z"/>
	<linearGradient id="SVGID_15_" gradientUnits="userSpaceOnUse" x1="198.9166" y1="129.1429" x2="396.0103" y2="129.1429">
		<stop  offset="0" style="stop-color:#6A6DBB"/>
		<stop  offset="1" style="stop-color:#E1777A"/>
	</linearGradient>
	<path class="st20" d="M395,104.9C395,104.9,395,104.9,395,104.9c0.1,0.1,0.2,0.1,0.2,0.1c0,0,1,1-6.7,5c-0.8,0.4-2,1-3.5,1.6
		c-0.6,0.3-1.3,0.5-1.9,0.7c0,0,0,0,0,0c-5.4,2-14.1,4.4-27,6.3c-14.2,2.1-31.7,1.9-46.9-0.5c-0.7-0.1-1.3-0.2-2-0.3
		c-5.3-0.7-10.6-1.3-15.7-1.8c-8.5-0.7-16-1-22.6-1.6c-0.2,0-0.3,0-0.5,0c-4.3-0.2-8.5-0.2-12.4-0.2c-3.3,0.1-6.6,0.3-10,0.6
		c-21.6,1.7-37,7.9-47,12.8c0,0,15.7-5,40.1,1.2c8.9,2.3,17.8,7.4,29,13.4c8.4,4.5,16.9,7.4,25,9c8.2,1.7,15.5,2.4,23.3,2
		c13.1-0.6,24.6-3.6,34.6-7.9c11.3-4.9,20.1-11.1,27-17.5c11.2-10.4,16.8-20.3,16.8-20.3l1.3-2.3C395.7,105.3,395,104.9,395,104.9z"
		/>
	<linearGradient id="SVGID_16_" gradientUnits="userSpaceOnUse" x1="395.2439" y1="107.6834" x2="181.3748" y2="107.6834">
		<stop  offset="0" style="stop-color:#E1777A"/>
		<stop  offset="0.2433" style="stop-color:#B57088"/>
		<stop  offset="0.4949" style="stop-color:#98709E"/>
		<stop  offset="0.7142" style="stop-color:#846FB2"/>
		<stop  offset="0.8899" style="stop-color:#726EBA"/>
		<stop  offset="1" style="stop-color:#6A6DBB"/>
	</linearGradient>
	<path class="st21" d="M395.2,105c-125.9-62.2-213.8,27.3-213.8,27.3s0.9,0.1,2.7,0c4.2-1.5,8.5-3.1,12.9-4c0.6-0.3,1.3-0.3,1.9-0.6
		c10-4.9,25.4-11.1,47-12.8c8.1-0.6,16.1-0.9,22.9-0.4c11,0.9,24.3,1.2,40.4,3.7c15.3,2.4,32.7,2.6,46.9,0.5
		c18.8-2.8,28.7-6.7,32.4-8.6C396.2,106,395.2,105,395.2,105z"/>
</g>
<g id="WPG">
	<g>
		<path class="st22" d="M385.6,163.6l-1.1,1.9l0.8,2c1.7,4.1,2.9,11.8,2.9,18.5c0,25.8-11.3,48.1-16.2,56.4
			c-8.6,14.8-13.5,15.6-14.4,15.6c-2,0-4.9-4-6.8-15.2c-1.7-9.8-2.5-23.7-2.5-43.6c0-18,1-26.7,2.2-36.7l0.6-5.3l-5.5,0.4
			c-4.7,0.4-15.2,6.8-19.9,11l-1.3,1.2l-0.1,1.7c-1.5,17.7-6.6,33.9-16,50.9c-6.9,12.3-11.3,19.4-15.1,25.2c-2-13.4-3.2-30-3.2-46.1
			c0-13.8,0.2-31.2,1.7-43.7l0.6-4.9h-5.1c-4.8,0-11.8,4.4-20.7,13.1l-1.3,1.2l-0.1,1.8c-0.2,6.8-0.5,14.5-0.5,25.3
			c-0.2,21,2,62.3,7.8,88.7l0.8,3.5h3.6c5.3,0,14.9-5.7,20.5-12.1l0.7-0.8l0.3-1c0.9-3.5,3.5-9.9,5.3-12.9
			c3.8-6.8,7.8-13.5,11.9-20.5l0.1-0.2c2.5-4.3,5.1-8.7,7.8-13.3c0.7,13.2,2.2,24.8,4.3,33.9c4,16.6,10.4,25,19,25
			c17.1,0,37.2-33.6,37.4-33.9c24.9-41.7,28.3-71.8,28.3-95.7v-4.4H408C402.2,150.4,391.3,153.9,385.6,163.6z"/>
		<path class="st22" d="M478.7,152.3c-10.5,0-30.8,1.2-47.3,2.9l-0.8,0.1l-0.7,0.3c-5.9,2.7-14.9,11.8-14.9,17.7v5.2l5.3-0.9
			c6.3-1.1,12.9-1.9,20.5-2.6c-2.6,23.1-4.3,52.2-4.3,74.7c0,18,0.9,28.2,3.2,35l1,3h3.3c8.3,0,20.4-6.6,21.9-13.6l0.4-1.8l-1-1.5
			c-0.8-1.2-2.1-4.9-2.6-8.4c-0.7-5.1-1.4-11.7-1.4-25.6c0-1.5,0-2.9,0-4.4c0.7,1.2,1.6,2.3,2.6,3.2c2.4,2.2,5.4,3.3,8.3,3.1
			c7.3-0.5,16.7-5.6,28-15c14.6-12.4,27.7-25,27.7-43.7C527.9,167.5,519.4,152.3,478.7,152.3z M475,173.6c10.2,0,27.3,2,27.3,15.1
			c0,11.4-3.9,19.9-12.4,26.6c-5.7,4.4-12.3,6.5-20.2,6.5c-2.3,0-4.1,0-5.2-0.2l-3.2-0.5c0.5-16.5,1.7-32.9,3.5-47.3
			C468.5,173.6,472.1,173.6,475,173.6z"/>
		<path class="st22" d="M616.3,241.5c0-7.1,0.5-15.2,1.7-27.9l0.1-0.6l5.1-5.1l-9.1,0.7c-4.9,0.3-15.8,1.5-23,2.2l-1.8,0.2
			c-1.4,0.1-2.7,0.3-3.6,0.4l-0.8,0.1l-0.7,0.3c-5.9,2.7-14.9,11.8-14.9,17.7v5.2l5.3-0.9c4.7-0.8,9.6-1.5,15-2.1
			c-3.5,6.7-8.2,13.6-13.2,19.2c-7.7,8.7-16,14.1-21.4,14.1c-3.4,0-9.8-8.6-9.8-29.2c0-40.5,13.8-54.3,18-57.6
			c4.8-3.7,11.1-5.8,17.7-5.8c8.7,0,17.1,2.3,20.6,4.4l2.2,1.3l2.3-1.2c5.8-2.9,13.8-13.2,13.8-19.3v-3.2l-3.1-1
			c-3.8-1.2-8.1-2.6-18.9-2.6c-13.9,0-31.1,7.2-45.8,19.3c-20.9,17.1-32.5,43.7-32.5,75c0,14.2,2.5,25.3,7.4,32.9
			c4.2,6.5,10.2,10.2,16.4,10.2c8.6,0,19-5.3,30.8-15.6c6.1-5.3,12.2-11.6,18.3-18.9c0.1,11.2,1.1,25.1,5,32.2l1.2,2.2l2.5,0.1
			c0.2,0,0.3,0,0.5,0c6.6,0,17.6-6.4,20.6-13.5l1-2.3l-1.5-2C618.1,266.1,616.3,255.6,616.3,241.5z"/>
	</g>
</g>
</svg>
