<?xml version="1.0" encoding="utf-8"?>
<!-- Generator: Adobe Illustrator 22.0.1, SVG Export Plug-In . SVG Version: 6.00 Build 0)  -->
<svg version="1.1" id="Слой_1" xmlns="http://www.w3.org/2000/svg" xmlns:xlink="http://www.w3.org/1999/xlink" x="0px" y="0px"
	 viewBox="0 0 64 64" style="enable-background:new 0 0 64 64;" xml:space="preserve">
<style type="text/css">
	.st0{fill:none;stroke:url(#SVGID_1_);stroke-width:3;stroke-linecap:round;stroke-linejoin:round;stroke-miterlimit:10;}
	.st1{fill:none;stroke:url(#SVGID_2_);stroke-width:3;stroke-linecap:round;stroke-linejoin:round;stroke-miterlimit:10;}
	.st2{fill:none;stroke:url(#SVGID_3_);stroke-width:3;stroke-linecap:round;stroke-linejoin:round;stroke-miterlimit:10;}
	.st3{fill:none;stroke:url(#SVGID_4_);stroke-width:3;stroke-linecap:round;stroke-linejoin:round;stroke-miterlimit:10;}
	.st4{fill:none;stroke:url(#SVGID_5_);stroke-width:3;stroke-linecap:round;stroke-linejoin:round;stroke-miterlimit:10;}
</style>
<title>Certificate</title>
<desc>A line styled icon from Orion Icon Library.</desc>
<linearGradient id="SVGID_1_" gradientUnits="userSpaceOnUse" x1="-6.066017e-02" y1="52.0607" x2="41.0607" y2="10.9393">
	<stop  offset="0" style="stop-color:#A3ACD9"/>
	<stop  offset="1" style="stop-color:#E1ACA3"/>
</linearGradient>
<path class="st0" d="M40,56H6V2h24l16,16v6.3"/>
<linearGradient id="SVGID_2_" gradientUnits="userSpaceOnUse" x1="28.9393" y1="19.0607" x2="39.0607" y2="8.9393">
	<stop  offset="0" style="stop-color:#A3ACD9"/>
	<stop  offset="1" style="stop-color:#E1ACA3"/>
</linearGradient>
<path class="st1" d="M30,2v16h16"/>
<linearGradient id="SVGID_3_" gradientUnits="userSpaceOnUse" x1="44.1109" y1="39.8891" x2="51.8891" y2="32.1109">
	<stop  offset="0" style="stop-color:#A3ACD9"/>
	<stop  offset="1" style="stop-color:#E1ACA3"/>
</linearGradient>
<circle class="st2" cx="48" cy="36" r="4"/>
<linearGradient id="SVGID_4_" gradientUnits="userSpaceOnUse" x1="38.9143" y1="61.3357" x2="57.1357" y2="43.1143">
	<stop  offset="0" style="stop-color:#A3ACD9"/>
	<stop  offset="1" style="stop-color:#E1ACA3"/>
</linearGradient>
<path class="st3" d="M40,44.2v16.1l8-5.3l8,5.3V44.1"/>
<linearGradient id="SVGID_5_" gradientUnits="userSpaceOnUse" x1="38.7223" y1="45.3676" x2="57.4488" y2="26.6411">
	<stop  offset="0" style="stop-color:#A3ACD9"/>
	<stop  offset="1" style="stop-color:#E1ACA3"/>
</linearGradient>
<path class="st4" d="M58.9,38.4c0-0.1,0-0.3-0.1-0.4c-0.5-1.3-0.5-2.7,0-4c0.9-2.6-0.5-5.3-3-6.2c-0.2-0.1-0.4-0.1-0.7-0.2H55
	c-1.2,0-2.3-0.6-3-1.5c-1.6-2.2-4.6-2.7-6.8-1.1c-0.4,0.3-0.8,0.6-1.1,1H44c-0.7,0.9-1.8,1.5-2.9,1.6c-2.7,0.5-4.5,3-4,5.7
	c0,0.1,0.1,0.3,0.1,0.4c0,0.1,0,0.2,0.1,0.3c0.6,1.3,0.6,2.7,0,4c-0.9,2.6,0.5,5.3,3.1,6.2c0.3,0.1,0.6,0.2,0.9,0.2h0.1
	c1.1,0.1,2.1,0.7,2.6,1.6c1.6,2.2,4.6,2.7,6.8,1.1c0.4-0.3,0.8-0.6,1.1-1H52c0.8-0.9,1.9-1.5,3.1-1.7c2.7-0.5,4.4-3,4-5.7
	C59,38.6,59,38.5,58.9,38.4L58.9,38.4z"/>
</svg>
