<?xml version="1.0" encoding="utf-8"?>
<!-- Generator: Adobe Illustrator 22.0.1, SVG Export Plug-In . SVG Version: 6.00 Build 0)  -->
<svg version="1.1" id="Слой_1" xmlns="http://www.w3.org/2000/svg" xmlns:xlink="http://www.w3.org/1999/xlink" x="0px" y="0px"
	 viewBox="0 0 64 64" style="enable-background:new 0 0 64 64;" xml:space="preserve">
<style type="text/css">
	.st0{fill:none;stroke:url(#SVGID_1_);stroke-width:3;stroke-linecap:round;stroke-linejoin:round;stroke-miterlimit:10;}
	.st1{fill:none;stroke:url(#SVGID_2_);stroke-width:3;stroke-linecap:round;stroke-linejoin:round;stroke-miterlimit:10;}
	.st2{fill:none;stroke:url(#SVGID_3_);stroke-width:3;stroke-linecap:round;stroke-linejoin:round;stroke-miterlimit:10;}
</style>
<title>Diploma</title>
<desc>A line styled icon from Orion Icon Library.</desc>
<linearGradient id="SVGID_1_" gradientUnits="userSpaceOnUse" x1="17.1643" y1="65.6857" x2="46.8357" y2="36.0143">
	<stop  offset="0" style="stop-color:#A3ACD9"/>
	<stop  offset="1" style="stop-color:#E1ACA3"/>
</linearGradient>
<path class="st0" d="M17.6,37.7L10,56.4l8.8-1.1l5.5,6.8l6.4-18.6 M46.4,37.7L54,56.4l-8.8-1.1l-5.4,6.8l-6.5-18.6"/>
<linearGradient id="SVGID_2_" gradientUnits="userSpaceOnUse" x1="22.4541" y1="32.4459" x2="41.5459" y2="13.3541">
	<stop  offset="0" style="stop-color:#A3ACD9"/>
	<stop  offset="1" style="stop-color:#E1ACA3"/>
</linearGradient>
<circle class="st1" cx="32" cy="22.9" r="12"/>
<linearGradient id="SVGID_3_" gradientUnits="userSpaceOnUse" x1="15.7643" y1="39.4857" x2="48.2357" y2="7.0143">
	<stop  offset="0" style="stop-color:#A3ACD9"/>
	<stop  offset="1" style="stop-color:#E1ACA3"/>
</linearGradient>
<path class="st2" d="M32,4.5l4.5-2.6l3.1,4.2l5.1-0.5l1.1,5l4.9,1.7l-1,5l3.8,3.5l-3,4.2l2.1,4.8l-4.5,2.6v5.1l-5.2,0.6l-2.1,4.7
	l-4.9-1.5L32,44.7l-3.9-3.4l-4.9,1.5l-2.1-4.7l-5.2-0.6v-5.1l-4.5-2.6l2.1-4.8l-3-4.2l3.8-3.5l-1-5l4.9-1.7l1.1-5l5.1,0.5l3.1-4.2
	L32,4.5z"/>
</svg>
